<?xml version="1.0" encoding="utf-8" standalone="no"?>
<!DOCTYPE svg PUBLIC "-//W3C//DTD SVG 1.1//EN"
  "http://www.w3.org/Graphics/SVG/1.1/DTD/svg11.dtd">
<svg xmlns:xlink="http://www.w3.org/1999/xlink" width="720pt" height="360pt" viewBox="0 0 720 360" xmlns="http://www.w3.org/2000/svg" version="1.1">
 <metadata>
  <rdf:RDF xmlns:dc="http://purl.org/dc/elements/1.1/" xmlns:cc="http://creativecommons.org/ns#" xmlns:rdf="http://www.w3.org/1999/02/22-rdf-syntax-ns#">
   <cc:Work>
    <dc:type rdf:resource="http://purl.org/dc/dcmitype/StillImage"/>
    <dc:date>2023-12-01T19:19:08.817274</dc:date>
    <dc:format>image/svg+xml</dc:format>
    <dc:creator>
     <cc:Agent>
      <dc:title>Matplotlib v3.7.3, https://matplotlib.org/</dc:title>
     </cc:Agent>
    </dc:creator>
   </cc:Work>
  </rdf:RDF>
 </metadata>
 <defs>
  <style type="text/css">*{stroke-linejoin: round; stroke-linecap: butt}</style>
 </defs>
 <g id="figure_1">
  <g id="patch_1">
   <path d="M 0 360 
L 720 360 
L 720 0 
L 0 0 
z
" style="fill: #ffffff"/>
  </g>
  <g id="axes_1">
   <g id="patch_2">
    <path d="M 90 320.4 
L 648 320.4 
L 648 43.2 
L 90 43.2 
z
" style="fill: #e5e5e5"/>
   </g>
   <g id="matplotlib.axis_1">
    <g id="xtick_1">
     <g id="line2d_1">
      <path d="M 190.631936 320.4 
L 190.631936 43.2 
" clip-path="url(#pa2674dbf77)" style="fill: none; stroke: #ffffff; stroke-width: 0.8; stroke-linecap: square"/>
     </g>
     <g id="line2d_2">
      <defs>
       <path id="m8a5f47416a" d="M 0 0 
L 0 3.5 
" style="stroke: #555555; stroke-width: 0.8"/>
      </defs>
      <g>
       <use xlink:href="#m8a5f47416a" x="190.631936" y="320.4" style="fill: #555555; stroke: #555555; stroke-width: 0.8"/>
      </g>
     </g>
     <g id="text_1">
      <!-- 0.0 -->
      <g style="fill: #555555" transform="translate(182.680374 334.998438) scale(0.1 -0.1)">
       <defs>
        <path id="DejaVuSans-30" d="M 2034 4250 
Q 1547 4250 1301 3770 
Q 1056 3291 1056 2328 
Q 1056 1369 1301 889 
Q 1547 409 2034 409 
Q 2525 409 2770 889 
Q 3016 1369 3016 2328 
Q 3016 3291 2770 3770 
Q 2525 4250 2034 4250 
z
M 2034 4750 
Q 2819 4750 3233 4129 
Q 3647 3509 3647 2328 
Q 3647 1150 3233 529 
Q 2819 -91 2034 -91 
Q 1250 -91 836 529 
Q 422 1150 422 2328 
Q 422 3509 836 4129 
Q 1250 4750 2034 4750 
z
" transform="scale(0.015625)"/>
        <path id="DejaVuSans-2e" d="M 684 794 
L 1344 794 
L 1344 0 
L 684 0 
L 684 794 
z
" transform="scale(0.015625)"/>
       </defs>
       <use xlink:href="#DejaVuSans-30"/>
       <use xlink:href="#DejaVuSans-2e" x="63.623047"/>
       <use xlink:href="#DejaVuSans-30" x="95.410156"/>
      </g>
     </g>
    </g>
    <g id="xtick_2">
     <g id="line2d_3">
      <path d="M 306.512102 320.4 
L 306.512102 43.2 
" clip-path="url(#pa2674dbf77)" style="fill: none; stroke: #ffffff; stroke-width: 0.8; stroke-linecap: square"/>
     </g>
     <g id="line2d_4">
      <g>
       <use xlink:href="#m8a5f47416a" x="306.512102" y="320.4" style="fill: #555555; stroke: #555555; stroke-width: 0.8"/>
      </g>
     </g>
     <g id="text_2">
      <!-- 0.1 -->
      <g style="fill: #555555" transform="translate(298.56054 334.998438) scale(0.1 -0.1)">
       <defs>
        <path id="DejaVuSans-31" d="M 794 531 
L 1825 531 
L 1825 4091 
L 703 3866 
L 703 4441 
L 1819 4666 
L 2450 4666 
L 2450 531 
L 3481 531 
L 3481 0 
L 794 0 
L 794 531 
z
" transform="scale(0.015625)"/>
       </defs>
       <use xlink:href="#DejaVuSans-30"/>
       <use xlink:href="#DejaVuSans-2e" x="63.623047"/>
       <use xlink:href="#DejaVuSans-31" x="95.410156"/>
      </g>
     </g>
    </g>
    <g id="xtick_3">
     <g id="line2d_5">
      <path d="M 422.392268 320.4 
L 422.392268 43.2 
" clip-path="url(#pa2674dbf77)" style="fill: none; stroke: #ffffff; stroke-width: 0.8; stroke-linecap: square"/>
     </g>
     <g id="line2d_6">
      <g>
       <use xlink:href="#m8a5f47416a" x="422.392268" y="320.4" style="fill: #555555; stroke: #555555; stroke-width: 0.8"/>
      </g>
     </g>
     <g id="text_3">
      <!-- 0.2 -->
      <g style="fill: #555555" transform="translate(414.440706 334.998438) scale(0.1 -0.1)">
       <defs>
        <path id="DejaVuSans-32" d="M 1228 531 
L 3431 531 
L 3431 0 
L 469 0 
L 469 531 
Q 828 903 1448 1529 
Q 2069 2156 2228 2338 
Q 2531 2678 2651 2914 
Q 2772 3150 2772 3378 
Q 2772 3750 2511 3984 
Q 2250 4219 1831 4219 
Q 1534 4219 1204 4116 
Q 875 4013 500 3803 
L 500 4441 
Q 881 4594 1212 4672 
Q 1544 4750 1819 4750 
Q 2544 4750 2975 4387 
Q 3406 4025 3406 3419 
Q 3406 3131 3298 2873 
Q 3191 2616 2906 2266 
Q 2828 2175 2409 1742 
Q 1991 1309 1228 531 
z
" transform="scale(0.015625)"/>
       </defs>
       <use xlink:href="#DejaVuSans-30"/>
       <use xlink:href="#DejaVuSans-2e" x="63.623047"/>
       <use xlink:href="#DejaVuSans-32" x="95.410156"/>
      </g>
     </g>
    </g>
    <g id="xtick_4">
     <g id="line2d_7">
      <path d="M 538.272434 320.4 
L 538.272434 43.2 
" clip-path="url(#pa2674dbf77)" style="fill: none; stroke: #ffffff; stroke-width: 0.8; stroke-linecap: square"/>
     </g>
     <g id="line2d_8">
      <g>
       <use xlink:href="#m8a5f47416a" x="538.272434" y="320.4" style="fill: #555555; stroke: #555555; stroke-width: 0.8"/>
      </g>
     </g>
     <g id="text_4">
      <!-- 0.3 -->
      <g style="fill: #555555" transform="translate(530.320872 334.998438) scale(0.1 -0.1)">
       <defs>
        <path id="DejaVuSans-33" d="M 2597 2516 
Q 3050 2419 3304 2112 
Q 3559 1806 3559 1356 
Q 3559 666 3084 287 
Q 2609 -91 1734 -91 
Q 1441 -91 1130 -33 
Q 819 25 488 141 
L 488 750 
Q 750 597 1062 519 
Q 1375 441 1716 441 
Q 2309 441 2620 675 
Q 2931 909 2931 1356 
Q 2931 1769 2642 2001 
Q 2353 2234 1838 2234 
L 1294 2234 
L 1294 2753 
L 1863 2753 
Q 2328 2753 2575 2939 
Q 2822 3125 2822 3475 
Q 2822 3834 2567 4026 
Q 2313 4219 1838 4219 
Q 1578 4219 1281 4162 
Q 984 4106 628 3988 
L 628 4550 
Q 988 4650 1302 4700 
Q 1616 4750 1894 4750 
Q 2613 4750 3031 4423 
Q 3450 4097 3450 3541 
Q 3450 3153 3228 2886 
Q 3006 2619 2597 2516 
z
" transform="scale(0.015625)"/>
       </defs>
       <use xlink:href="#DejaVuSans-30"/>
       <use xlink:href="#DejaVuSans-2e" x="63.623047"/>
       <use xlink:href="#DejaVuSans-33" x="95.410156"/>
      </g>
     </g>
    </g>
    <g id="text_5">
     <!-- Similarity Score -->
     <g style="fill: #555555" transform="translate(321.9225 350.19625) scale(0.12 -0.12)">
      <defs>
       <path id="DejaVuSans-53" d="M 3425 4513 
L 3425 3897 
Q 3066 4069 2747 4153 
Q 2428 4238 2131 4238 
Q 1616 4238 1336 4038 
Q 1056 3838 1056 3469 
Q 1056 3159 1242 3001 
Q 1428 2844 1947 2747 
L 2328 2669 
Q 3034 2534 3370 2195 
Q 3706 1856 3706 1288 
Q 3706 609 3251 259 
Q 2797 -91 1919 -91 
Q 1588 -91 1214 -16 
Q 841 59 441 206 
L 441 856 
Q 825 641 1194 531 
Q 1563 422 1919 422 
Q 2459 422 2753 634 
Q 3047 847 3047 1241 
Q 3047 1584 2836 1778 
Q 2625 1972 2144 2069 
L 1759 2144 
Q 1053 2284 737 2584 
Q 422 2884 422 3419 
Q 422 4038 858 4394 
Q 1294 4750 2059 4750 
Q 2388 4750 2728 4690 
Q 3069 4631 3425 4513 
z
" transform="scale(0.015625)"/>
       <path id="DejaVuSans-69" d="M 603 3500 
L 1178 3500 
L 1178 0 
L 603 0 
L 603 3500 
z
M 603 4863 
L 1178 4863 
L 1178 4134 
L 603 4134 
L 603 4863 
z
" transform="scale(0.015625)"/>
       <path id="DejaVuSans-6d" d="M 3328 2828 
Q 3544 3216 3844 3400 
Q 4144 3584 4550 3584 
Q 5097 3584 5394 3201 
Q 5691 2819 5691 2113 
L 5691 0 
L 5113 0 
L 5113 2094 
Q 5113 2597 4934 2840 
Q 4756 3084 4391 3084 
Q 3944 3084 3684 2787 
Q 3425 2491 3425 1978 
L 3425 0 
L 2847 0 
L 2847 2094 
Q 2847 2600 2669 2842 
Q 2491 3084 2119 3084 
Q 1678 3084 1418 2786 
Q 1159 2488 1159 1978 
L 1159 0 
L 581 0 
L 581 3500 
L 1159 3500 
L 1159 2956 
Q 1356 3278 1631 3431 
Q 1906 3584 2284 3584 
Q 2666 3584 2933 3390 
Q 3200 3197 3328 2828 
z
" transform="scale(0.015625)"/>
       <path id="DejaVuSans-6c" d="M 603 4863 
L 1178 4863 
L 1178 0 
L 603 0 
L 603 4863 
z
" transform="scale(0.015625)"/>
       <path id="DejaVuSans-61" d="M 2194 1759 
Q 1497 1759 1228 1600 
Q 959 1441 959 1056 
Q 959 750 1161 570 
Q 1363 391 1709 391 
Q 2188 391 2477 730 
Q 2766 1069 2766 1631 
L 2766 1759 
L 2194 1759 
z
M 3341 1997 
L 3341 0 
L 2766 0 
L 2766 531 
Q 2569 213 2275 61 
Q 1981 -91 1556 -91 
Q 1019 -91 701 211 
Q 384 513 384 1019 
Q 384 1609 779 1909 
Q 1175 2209 1959 2209 
L 2766 2209 
L 2766 2266 
Q 2766 2663 2505 2880 
Q 2244 3097 1772 3097 
Q 1472 3097 1187 3025 
Q 903 2953 641 2809 
L 641 3341 
Q 956 3463 1253 3523 
Q 1550 3584 1831 3584 
Q 2591 3584 2966 3190 
Q 3341 2797 3341 1997 
z
" transform="scale(0.015625)"/>
       <path id="DejaVuSans-72" d="M 2631 2963 
Q 2534 3019 2420 3045 
Q 2306 3072 2169 3072 
Q 1681 3072 1420 2755 
Q 1159 2438 1159 1844 
L 1159 0 
L 581 0 
L 581 3500 
L 1159 3500 
L 1159 2956 
Q 1341 3275 1631 3429 
Q 1922 3584 2338 3584 
Q 2397 3584 2469 3576 
Q 2541 3569 2628 3553 
L 2631 2963 
z
" transform="scale(0.015625)"/>
       <path id="DejaVuSans-74" d="M 1172 4494 
L 1172 3500 
L 2356 3500 
L 2356 3053 
L 1172 3053 
L 1172 1153 
Q 1172 725 1289 603 
Q 1406 481 1766 481 
L 2356 481 
L 2356 0 
L 1766 0 
Q 1100 0 847 248 
Q 594 497 594 1153 
L 594 3053 
L 172 3053 
L 172 3500 
L 594 3500 
L 594 4494 
L 1172 4494 
z
" transform="scale(0.015625)"/>
       <path id="DejaVuSans-79" d="M 2059 -325 
Q 1816 -950 1584 -1140 
Q 1353 -1331 966 -1331 
L 506 -1331 
L 506 -850 
L 844 -850 
Q 1081 -850 1212 -737 
Q 1344 -625 1503 -206 
L 1606 56 
L 191 3500 
L 800 3500 
L 1894 763 
L 2988 3500 
L 3597 3500 
L 2059 -325 
z
" transform="scale(0.015625)"/>
       <path id="DejaVuSans-20" transform="scale(0.015625)"/>
       <path id="DejaVuSans-63" d="M 3122 3366 
L 3122 2828 
Q 2878 2963 2633 3030 
Q 2388 3097 2138 3097 
Q 1578 3097 1268 2742 
Q 959 2388 959 1747 
Q 959 1106 1268 751 
Q 1578 397 2138 397 
Q 2388 397 2633 464 
Q 2878 531 3122 666 
L 3122 134 
Q 2881 22 2623 -34 
Q 2366 -91 2075 -91 
Q 1284 -91 818 406 
Q 353 903 353 1747 
Q 353 2603 823 3093 
Q 1294 3584 2113 3584 
Q 2378 3584 2631 3529 
Q 2884 3475 3122 3366 
z
" transform="scale(0.015625)"/>
       <path id="DejaVuSans-6f" d="M 1959 3097 
Q 1497 3097 1228 2736 
Q 959 2375 959 1747 
Q 959 1119 1226 758 
Q 1494 397 1959 397 
Q 2419 397 2687 759 
Q 2956 1122 2956 1747 
Q 2956 2369 2687 2733 
Q 2419 3097 1959 3097 
z
M 1959 3584 
Q 2709 3584 3137 3096 
Q 3566 2609 3566 1747 
Q 3566 888 3137 398 
Q 2709 -91 1959 -91 
Q 1206 -91 779 398 
Q 353 888 353 1747 
Q 353 2609 779 3096 
Q 1206 3584 1959 3584 
z
" transform="scale(0.015625)"/>
       <path id="DejaVuSans-65" d="M 3597 1894 
L 3597 1613 
L 953 1613 
Q 991 1019 1311 708 
Q 1631 397 2203 397 
Q 2534 397 2845 478 
Q 3156 559 3463 722 
L 3463 178 
Q 3153 47 2828 -22 
Q 2503 -91 2169 -91 
Q 1331 -91 842 396 
Q 353 884 353 1716 
Q 353 2575 817 3079 
Q 1281 3584 2069 3584 
Q 2775 3584 3186 3129 
Q 3597 2675 3597 1894 
z
M 3022 2063 
Q 3016 2534 2758 2815 
Q 2500 3097 2075 3097 
Q 1594 3097 1305 2825 
Q 1016 2553 972 2059 
L 3022 2063 
z
" transform="scale(0.015625)"/>
      </defs>
      <use xlink:href="#DejaVuSans-53"/>
      <use xlink:href="#DejaVuSans-69" x="63.476562"/>
      <use xlink:href="#DejaVuSans-6d" x="91.259766"/>
      <use xlink:href="#DejaVuSans-69" x="188.671875"/>
      <use xlink:href="#DejaVuSans-6c" x="216.455078"/>
      <use xlink:href="#DejaVuSans-61" x="244.238281"/>
      <use xlink:href="#DejaVuSans-72" x="305.517578"/>
      <use xlink:href="#DejaVuSans-69" x="346.630859"/>
      <use xlink:href="#DejaVuSans-74" x="374.414062"/>
      <use xlink:href="#DejaVuSans-79" x="413.623047"/>
      <use xlink:href="#DejaVuSans-20" x="472.802734"/>
      <use xlink:href="#DejaVuSans-53" x="504.589844"/>
      <use xlink:href="#DejaVuSans-63" x="568.066406"/>
      <use xlink:href="#DejaVuSans-6f" x="623.046875"/>
      <use xlink:href="#DejaVuSans-72" x="684.228516"/>
      <use xlink:href="#DejaVuSans-65" x="723.091797"/>
     </g>
    </g>
   </g>
   <g id="matplotlib.axis_2">
    <g id="ytick_1">
     <g id="line2d_9">
      <path d="M 90 320.4 
L 648 320.4 
" clip-path="url(#pa2674dbf77)" style="fill: none; stroke: #ffffff; stroke-width: 0.8; stroke-linecap: square"/>
     </g>
     <g id="line2d_10">
      <defs>
       <path id="m36aaafb4b2" d="M 0 0 
L -3.5 0 
" style="stroke: #555555; stroke-width: 0.8"/>
      </defs>
      <g>
       <use xlink:href="#m36aaafb4b2" x="90" y="320.4" style="fill: #555555; stroke: #555555; stroke-width: 0.8"/>
      </g>
     </g>
     <g id="text_6">
      <!-- 0.00 -->
      <g style="fill: #555555" transform="translate(60.734375 324.199219) scale(0.1 -0.1)">
       <use xlink:href="#DejaVuSans-30"/>
       <use xlink:href="#DejaVuSans-2e" x="63.623047"/>
       <use xlink:href="#DejaVuSans-30" x="95.410156"/>
       <use xlink:href="#DejaVuSans-30" x="159.033203"/>
      </g>
     </g>
    </g>
    <g id="ytick_2">
     <g id="line2d_11">
      <path d="M 90 283.44 
L 648 283.44 
" clip-path="url(#pa2674dbf77)" style="fill: none; stroke: #ffffff; stroke-width: 0.8; stroke-linecap: square"/>
     </g>
     <g id="line2d_12">
      <g>
       <use xlink:href="#m36aaafb4b2" x="90" y="283.44" style="fill: #555555; stroke: #555555; stroke-width: 0.8"/>
      </g>
     </g>
     <g id="text_7">
      <!-- 0.02 -->
      <g style="fill: #555555" transform="translate(60.734375 287.239219) scale(0.1 -0.1)">
       <use xlink:href="#DejaVuSans-30"/>
       <use xlink:href="#DejaVuSans-2e" x="63.623047"/>
       <use xlink:href="#DejaVuSans-30" x="95.410156"/>
       <use xlink:href="#DejaVuSans-32" x="159.033203"/>
      </g>
     </g>
    </g>
    <g id="ytick_3">
     <g id="line2d_13">
      <path d="M 90 246.48 
L 648 246.48 
" clip-path="url(#pa2674dbf77)" style="fill: none; stroke: #ffffff; stroke-width: 0.8; stroke-linecap: square"/>
     </g>
     <g id="line2d_14">
      <g>
       <use xlink:href="#m36aaafb4b2" x="90" y="246.48" style="fill: #555555; stroke: #555555; stroke-width: 0.8"/>
      </g>
     </g>
     <g id="text_8">
      <!-- 0.04 -->
      <g style="fill: #555555" transform="translate(60.734375 250.279219) scale(0.1 -0.1)">
       <defs>
        <path id="DejaVuSans-34" d="M 2419 4116 
L 825 1625 
L 2419 1625 
L 2419 4116 
z
M 2253 4666 
L 3047 4666 
L 3047 1625 
L 3713 1625 
L 3713 1100 
L 3047 1100 
L 3047 0 
L 2419 0 
L 2419 1100 
L 313 1100 
L 313 1709 
L 2253 4666 
z
" transform="scale(0.015625)"/>
       </defs>
       <use xlink:href="#DejaVuSans-30"/>
       <use xlink:href="#DejaVuSans-2e" x="63.623047"/>
       <use xlink:href="#DejaVuSans-30" x="95.410156"/>
       <use xlink:href="#DejaVuSans-34" x="159.033203"/>
      </g>
     </g>
    </g>
    <g id="ytick_4">
     <g id="line2d_15">
      <path d="M 90 209.52 
L 648 209.52 
" clip-path="url(#pa2674dbf77)" style="fill: none; stroke: #ffffff; stroke-width: 0.8; stroke-linecap: square"/>
     </g>
     <g id="line2d_16">
      <g>
       <use xlink:href="#m36aaafb4b2" x="90" y="209.52" style="fill: #555555; stroke: #555555; stroke-width: 0.8"/>
      </g>
     </g>
     <g id="text_9">
      <!-- 0.06 -->
      <g style="fill: #555555" transform="translate(60.734375 213.319219) scale(0.1 -0.1)">
       <defs>
        <path id="DejaVuSans-36" d="M 2113 2584 
Q 1688 2584 1439 2293 
Q 1191 2003 1191 1497 
Q 1191 994 1439 701 
Q 1688 409 2113 409 
Q 2538 409 2786 701 
Q 3034 994 3034 1497 
Q 3034 2003 2786 2293 
Q 2538 2584 2113 2584 
z
M 3366 4563 
L 3366 3988 
Q 3128 4100 2886 4159 
Q 2644 4219 2406 4219 
Q 1781 4219 1451 3797 
Q 1122 3375 1075 2522 
Q 1259 2794 1537 2939 
Q 1816 3084 2150 3084 
Q 2853 3084 3261 2657 
Q 3669 2231 3669 1497 
Q 3669 778 3244 343 
Q 2819 -91 2113 -91 
Q 1303 -91 875 529 
Q 447 1150 447 2328 
Q 447 3434 972 4092 
Q 1497 4750 2381 4750 
Q 2619 4750 2861 4703 
Q 3103 4656 3366 4563 
z
" transform="scale(0.015625)"/>
       </defs>
       <use xlink:href="#DejaVuSans-30"/>
       <use xlink:href="#DejaVuSans-2e" x="63.623047"/>
       <use xlink:href="#DejaVuSans-30" x="95.410156"/>
       <use xlink:href="#DejaVuSans-36" x="159.033203"/>
      </g>
     </g>
    </g>
    <g id="ytick_5">
     <g id="line2d_17">
      <path d="M 90 172.56 
L 648 172.56 
" clip-path="url(#pa2674dbf77)" style="fill: none; stroke: #ffffff; stroke-width: 0.8; stroke-linecap: square"/>
     </g>
     <g id="line2d_18">
      <g>
       <use xlink:href="#m36aaafb4b2" x="90" y="172.56" style="fill: #555555; stroke: #555555; stroke-width: 0.8"/>
      </g>
     </g>
     <g id="text_10">
      <!-- 0.08 -->
      <g style="fill: #555555" transform="translate(60.734375 176.359219) scale(0.1 -0.1)">
       <defs>
        <path id="DejaVuSans-38" d="M 2034 2216 
Q 1584 2216 1326 1975 
Q 1069 1734 1069 1313 
Q 1069 891 1326 650 
Q 1584 409 2034 409 
Q 2484 409 2743 651 
Q 3003 894 3003 1313 
Q 3003 1734 2745 1975 
Q 2488 2216 2034 2216 
z
M 1403 2484 
Q 997 2584 770 2862 
Q 544 3141 544 3541 
Q 544 4100 942 4425 
Q 1341 4750 2034 4750 
Q 2731 4750 3128 4425 
Q 3525 4100 3525 3541 
Q 3525 3141 3298 2862 
Q 3072 2584 2669 2484 
Q 3125 2378 3379 2068 
Q 3634 1759 3634 1313 
Q 3634 634 3220 271 
Q 2806 -91 2034 -91 
Q 1263 -91 848 271 
Q 434 634 434 1313 
Q 434 1759 690 2068 
Q 947 2378 1403 2484 
z
M 1172 3481 
Q 1172 3119 1398 2916 
Q 1625 2713 2034 2713 
Q 2441 2713 2670 2916 
Q 2900 3119 2900 3481 
Q 2900 3844 2670 4047 
Q 2441 4250 2034 4250 
Q 1625 4250 1398 4047 
Q 1172 3844 1172 3481 
z
" transform="scale(0.015625)"/>
       </defs>
       <use xlink:href="#DejaVuSans-30"/>
       <use xlink:href="#DejaVuSans-2e" x="63.623047"/>
       <use xlink:href="#DejaVuSans-30" x="95.410156"/>
       <use xlink:href="#DejaVuSans-38" x="159.033203"/>
      </g>
     </g>
    </g>
    <g id="ytick_6">
     <g id="line2d_19">
      <path d="M 90 135.6 
L 648 135.6 
" clip-path="url(#pa2674dbf77)" style="fill: none; stroke: #ffffff; stroke-width: 0.8; stroke-linecap: square"/>
     </g>
     <g id="line2d_20">
      <g>
       <use xlink:href="#m36aaafb4b2" x="90" y="135.6" style="fill: #555555; stroke: #555555; stroke-width: 0.8"/>
      </g>
     </g>
     <g id="text_11">
      <!-- 0.10 -->
      <g style="fill: #555555" transform="translate(60.734375 139.399219) scale(0.1 -0.1)">
       <use xlink:href="#DejaVuSans-30"/>
       <use xlink:href="#DejaVuSans-2e" x="63.623047"/>
       <use xlink:href="#DejaVuSans-31" x="95.410156"/>
       <use xlink:href="#DejaVuSans-30" x="159.033203"/>
      </g>
     </g>
    </g>
    <g id="ytick_7">
     <g id="line2d_21">
      <path d="M 90 98.64 
L 648 98.64 
" clip-path="url(#pa2674dbf77)" style="fill: none; stroke: #ffffff; stroke-width: 0.8; stroke-linecap: square"/>
     </g>
     <g id="line2d_22">
      <g>
       <use xlink:href="#m36aaafb4b2" x="90" y="98.64" style="fill: #555555; stroke: #555555; stroke-width: 0.8"/>
      </g>
     </g>
     <g id="text_12">
      <!-- 0.12 -->
      <g style="fill: #555555" transform="translate(60.734375 102.439219) scale(0.1 -0.1)">
       <use xlink:href="#DejaVuSans-30"/>
       <use xlink:href="#DejaVuSans-2e" x="63.623047"/>
       <use xlink:href="#DejaVuSans-31" x="95.410156"/>
       <use xlink:href="#DejaVuSans-32" x="159.033203"/>
      </g>
     </g>
    </g>
    <g id="ytick_8">
     <g id="line2d_23">
      <path d="M 90 61.68 
L 648 61.68 
" clip-path="url(#pa2674dbf77)" style="fill: none; stroke: #ffffff; stroke-width: 0.8; stroke-linecap: square"/>
     </g>
     <g id="line2d_24">
      <g>
       <use xlink:href="#m36aaafb4b2" x="90" y="61.68" style="fill: #555555; stroke: #555555; stroke-width: 0.8"/>
      </g>
     </g>
     <g id="text_13">
      <!-- 0.14 -->
      <g style="fill: #555555" transform="translate(60.734375 65.479219) scale(0.1 -0.1)">
       <use xlink:href="#DejaVuSans-30"/>
       <use xlink:href="#DejaVuSans-2e" x="63.623047"/>
       <use xlink:href="#DejaVuSans-31" x="95.410156"/>
       <use xlink:href="#DejaVuSans-34" x="159.033203"/>
      </g>
     </g>
    </g>
    <g id="text_14">
     <!-- Density -->
     <g style="fill: #555555" transform="translate(54.23875 204.610312) rotate(-90) scale(0.12 -0.12)">
      <defs>
       <path id="DejaVuSans-44" d="M 1259 4147 
L 1259 519 
L 2022 519 
Q 2988 519 3436 956 
Q 3884 1394 3884 2338 
Q 3884 3275 3436 3711 
Q 2988 4147 2022 4147 
L 1259 4147 
z
M 628 4666 
L 1925 4666 
Q 3281 4666 3915 4102 
Q 4550 3538 4550 2338 
Q 4550 1131 3912 565 
Q 3275 0 1925 0 
L 628 0 
L 628 4666 
z
" transform="scale(0.015625)"/>
       <path id="DejaVuSans-6e" d="M 3513 2113 
L 3513 0 
L 2938 0 
L 2938 2094 
Q 2938 2591 2744 2837 
Q 2550 3084 2163 3084 
Q 1697 3084 1428 2787 
Q 1159 2491 1159 1978 
L 1159 0 
L 581 0 
L 581 3500 
L 1159 3500 
L 1159 2956 
Q 1366 3272 1645 3428 
Q 1925 3584 2291 3584 
Q 2894 3584 3203 3211 
Q 3513 2838 3513 2113 
z
" transform="scale(0.015625)"/>
       <path id="DejaVuSans-73" d="M 2834 3397 
L 2834 2853 
Q 2591 2978 2328 3040 
Q 2066 3103 1784 3103 
Q 1356 3103 1142 2972 
Q 928 2841 928 2578 
Q 928 2378 1081 2264 
Q 1234 2150 1697 2047 
L 1894 2003 
Q 2506 1872 2764 1633 
Q 3022 1394 3022 966 
Q 3022 478 2636 193 
Q 2250 -91 1575 -91 
Q 1294 -91 989 -36 
Q 684 19 347 128 
L 347 722 
Q 666 556 975 473 
Q 1284 391 1588 391 
Q 1994 391 2212 530 
Q 2431 669 2431 922 
Q 2431 1156 2273 1281 
Q 2116 1406 1581 1522 
L 1381 1569 
Q 847 1681 609 1914 
Q 372 2147 372 2553 
Q 372 3047 722 3315 
Q 1072 3584 1716 3584 
Q 2034 3584 2315 3537 
Q 2597 3491 2834 3397 
z
" transform="scale(0.015625)"/>
      </defs>
      <use xlink:href="#DejaVuSans-44"/>
      <use xlink:href="#DejaVuSans-65" x="77.001953"/>
      <use xlink:href="#DejaVuSans-6e" x="138.525391"/>
      <use xlink:href="#DejaVuSans-73" x="201.904297"/>
      <use xlink:href="#DejaVuSans-69" x="254.003906"/>
      <use xlink:href="#DejaVuSans-74" x="281.787109"/>
      <use xlink:href="#DejaVuSans-79" x="320.996094"/>
     </g>
    </g>
   </g>
   <g id="patch_3">
    <path d="M 326.641189 320.4 
L 337.678237 320.4 
L 337.678237 315.963025 
L 326.641189 315.963025 
z
" clip-path="url(#pa2674dbf77)" style="fill: #0000ff; fill-opacity: 0.5; stroke: #eeeeee; stroke-width: 0.5; stroke-linejoin: miter"/>
   </g>
   <g id="patch_4">
    <path d="M 337.678237 320.4 
L 348.715285 320.4 
L 348.715285 315.963025 
L 337.678237 315.963025 
z
" clip-path="url(#pa2674dbf77)" style="fill: #0000ff; fill-opacity: 0.5; stroke: #eeeeee; stroke-width: 0.5; stroke-linejoin: miter"/>
   </g>
   <g id="patch_5">
    <path d="M 348.715285 320.4 
L 359.752333 320.4 
L 359.752333 320.4 
L 348.715285 320.4 
z
" clip-path="url(#pa2674dbf77)" style="fill: #0000ff; fill-opacity: 0.5; stroke: #eeeeee; stroke-width: 0.5; stroke-linejoin: miter"/>
   </g>
   <g id="patch_6">
    <path d="M 359.752333 320.4 
L 370.789382 320.4 
L 370.789382 315.963025 
L 359.752333 315.963025 
z
" clip-path="url(#pa2674dbf77)" style="fill: #0000ff; fill-opacity: 0.5; stroke: #eeeeee; stroke-width: 0.5; stroke-linejoin: miter"/>
   </g>
   <g id="patch_7">
    <path d="M 370.789382 320.4 
L 381.82643 320.4 
L 381.82643 307.089076 
L 370.789382 307.089076 
z
" clip-path="url(#pa2674dbf77)" style="fill: #0000ff; fill-opacity: 0.5; stroke: #eeeeee; stroke-width: 0.5; stroke-linejoin: miter"/>
   </g>
   <g id="patch_8">
    <path d="M 381.82643 320.4 
L 392.863478 320.4 
L 392.863478 284.904202 
L 381.82643 284.904202 
z
" clip-path="url(#pa2674dbf77)" style="fill: #0000ff; fill-opacity: 0.5; stroke: #eeeeee; stroke-width: 0.5; stroke-linejoin: miter"/>
   </g>
   <g id="patch_9">
    <path d="M 392.863478 320.4 
L 403.900527 320.4 
L 403.900527 280.467227 
L 392.863478 280.467227 
z
" clip-path="url(#pa2674dbf77)" style="fill: #0000ff; fill-opacity: 0.5; stroke: #eeeeee; stroke-width: 0.5; stroke-linejoin: miter"/>
   </g>
   <g id="patch_10">
    <path d="M 403.900527 320.4 
L 414.937575 320.4 
L 414.937575 240.534454 
L 403.900527 240.534454 
z
" clip-path="url(#pa2674dbf77)" style="fill: #0000ff; fill-opacity: 0.5; stroke: #eeeeee; stroke-width: 0.5; stroke-linejoin: miter"/>
   </g>
   <g id="patch_11">
    <path d="M 414.937575 320.4 
L 425.974623 320.4 
L 425.974623 191.727731 
L 414.937575 191.727731 
z
" clip-path="url(#pa2674dbf77)" style="fill: #0000ff; fill-opacity: 0.5; stroke: #eeeeee; stroke-width: 0.5; stroke-linejoin: miter"/>
   </g>
   <g id="patch_12">
    <path d="M 425.974623 320.4 
L 437.011671 320.4 
L 437.011671 140.702521 
L 425.974623 140.702521 
z
" clip-path="url(#pa2674dbf77)" style="fill: #0000ff; fill-opacity: 0.5; stroke: #eeeeee; stroke-width: 0.5; stroke-linejoin: miter"/>
   </g>
   <g id="patch_13">
    <path d="M 437.011671 320.4 
L 448.04872 320.4 
L 448.04872 120.736134 
L 437.011671 120.736134 
z
" clip-path="url(#pa2674dbf77)" style="fill: #0000ff; fill-opacity: 0.5; stroke: #eeeeee; stroke-width: 0.5; stroke-linejoin: miter"/>
   </g>
   <g id="patch_14">
    <path d="M 448.04872 320.4 
L 459.085768 320.4 
L 459.085768 107.42521 
L 448.04872 107.42521 
z
" clip-path="url(#pa2674dbf77)" style="fill: #0000ff; fill-opacity: 0.5; stroke: #eeeeee; stroke-width: 0.5; stroke-linejoin: miter"/>
   </g>
   <g id="patch_15">
    <path d="M 459.085768 320.4 
L 470.122816 320.4 
L 470.122816 63.055462 
L 459.085768 63.055462 
z
" clip-path="url(#pa2674dbf77)" style="fill: #0000ff; fill-opacity: 0.5; stroke: #eeeeee; stroke-width: 0.5; stroke-linejoin: miter"/>
   </g>
   <g id="patch_16">
    <path d="M 470.122816 320.4 
L 481.159865 320.4 
L 481.159865 131.828571 
L 470.122816 131.828571 
z
" clip-path="url(#pa2674dbf77)" style="fill: #0000ff; fill-opacity: 0.5; stroke: #eeeeee; stroke-width: 0.5; stroke-linejoin: miter"/>
   </g>
   <g id="patch_17">
    <path d="M 481.159865 320.4 
L 492.196913 320.4 
L 492.196913 129.610084 
L 481.159865 129.610084 
z
" clip-path="url(#pa2674dbf77)" style="fill: #0000ff; fill-opacity: 0.5; stroke: #eeeeee; stroke-width: 0.5; stroke-linejoin: miter"/>
   </g>
   <g id="patch_18">
    <path d="M 492.196913 320.4 
L 503.233961 320.4 
L 503.233961 211.694118 
L 492.196913 211.694118 
z
" clip-path="url(#pa2674dbf77)" style="fill: #0000ff; fill-opacity: 0.5; stroke: #eeeeee; stroke-width: 0.5; stroke-linejoin: miter"/>
   </g>
   <g id="patch_19">
    <path d="M 503.233961 320.4 
L 514.271009 320.4 
L 514.271009 225.005042 
L 503.233961 225.005042 
z
" clip-path="url(#pa2674dbf77)" style="fill: #0000ff; fill-opacity: 0.5; stroke: #eeeeee; stroke-width: 0.5; stroke-linejoin: miter"/>
   </g>
   <g id="patch_20">
    <path d="M 514.271009 320.4 
L 525.308058 320.4 
L 525.308058 262.719328 
L 514.271009 262.719328 
z
" clip-path="url(#pa2674dbf77)" style="fill: #0000ff; fill-opacity: 0.5; stroke: #eeeeee; stroke-width: 0.5; stroke-linejoin: miter"/>
   </g>
   <g id="patch_21">
    <path d="M 525.308058 320.4 
L 536.345106 320.4 
L 536.345106 293.778151 
L 525.308058 293.778151 
z
" clip-path="url(#pa2674dbf77)" style="fill: #0000ff; fill-opacity: 0.5; stroke: #eeeeee; stroke-width: 0.5; stroke-linejoin: miter"/>
   </g>
   <g id="patch_22">
    <path d="M 536.345106 320.4 
L 547.382154 320.4 
L 547.382154 300.433613 
L 536.345106 300.433613 
z
" clip-path="url(#pa2674dbf77)" style="fill: #0000ff; fill-opacity: 0.5; stroke: #eeeeee; stroke-width: 0.5; stroke-linejoin: miter"/>
   </g>
   <g id="patch_23">
    <path d="M 422.052775 320.4 
L 432.081955 320.4 
L 432.081955 313.744538 
L 422.052775 313.744538 
z
" clip-path="url(#pa2674dbf77)" style="fill: #008000; fill-opacity: 0.5; stroke: #eeeeee; stroke-width: 0.5; stroke-linejoin: miter"/>
   </g>
   <g id="patch_24">
    <path d="M 432.081955 320.4 
L 442.111134 320.4 
L 442.111134 307.089076 
L 432.081955 307.089076 
z
" clip-path="url(#pa2674dbf77)" style="fill: #008000; fill-opacity: 0.5; stroke: #eeeeee; stroke-width: 0.5; stroke-linejoin: miter"/>
   </g>
   <g id="patch_25">
    <path d="M 442.111134 320.4 
L 452.140314 320.4 
L 452.140314 293.778151 
L 442.111134 293.778151 
z
" clip-path="url(#pa2674dbf77)" style="fill: #008000; fill-opacity: 0.5; stroke: #eeeeee; stroke-width: 0.5; stroke-linejoin: miter"/>
   </g>
   <g id="patch_26">
    <path d="M 452.140314 320.4 
L 462.169493 320.4 
L 462.169493 282.685714 
L 452.140314 282.685714 
z
" clip-path="url(#pa2674dbf77)" style="fill: #008000; fill-opacity: 0.5; stroke: #eeeeee; stroke-width: 0.5; stroke-linejoin: miter"/>
   </g>
   <g id="patch_27">
    <path d="M 462.169493 320.4 
L 472.198672 320.4 
L 472.198672 271.593277 
L 462.169493 271.593277 
z
" clip-path="url(#pa2674dbf77)" style="fill: #008000; fill-opacity: 0.5; stroke: #eeeeee; stroke-width: 0.5; stroke-linejoin: miter"/>
   </g>
   <g id="patch_28">
    <path d="M 472.198672 320.4 
L 482.227852 320.4 
L 482.227852 236.097479 
L 472.198672 236.097479 
z
" clip-path="url(#pa2674dbf77)" style="fill: #008000; fill-opacity: 0.5; stroke: #eeeeee; stroke-width: 0.5; stroke-linejoin: miter"/>
   </g>
   <g id="patch_29">
    <path d="M 482.227852 320.4 
L 492.257031 320.4 
L 492.257031 231.660504 
L 482.227852 231.660504 
z
" clip-path="url(#pa2674dbf77)" style="fill: #008000; fill-opacity: 0.5; stroke: #eeeeee; stroke-width: 0.5; stroke-linejoin: miter"/>
   </g>
   <g id="patch_30">
    <path d="M 492.257031 320.4 
L 502.286211 320.4 
L 502.286211 167.32437 
L 492.257031 167.32437 
z
" clip-path="url(#pa2674dbf77)" style="fill: #008000; fill-opacity: 0.5; stroke: #eeeeee; stroke-width: 0.5; stroke-linejoin: miter"/>
   </g>
   <g id="patch_31">
    <path d="M 502.286211 320.4 
L 512.31539 320.4 
L 512.31539 129.610084 
L 502.286211 129.610084 
z
" clip-path="url(#pa2674dbf77)" style="fill: #008000; fill-opacity: 0.5; stroke: #eeeeee; stroke-width: 0.5; stroke-linejoin: miter"/>
   </g>
   <g id="patch_32">
    <path d="M 512.31539 320.4 
L 522.34457 320.4 
L 522.34457 127.391597 
L 512.31539 127.391597 
z
" clip-path="url(#pa2674dbf77)" style="fill: #008000; fill-opacity: 0.5; stroke: #eeeeee; stroke-width: 0.5; stroke-linejoin: miter"/>
   </g>
   <g id="patch_33">
    <path d="M 522.34457 320.4 
L 532.373749 320.4 
L 532.373749 136.265546 
L 522.34457 136.265546 
z
" clip-path="url(#pa2674dbf77)" style="fill: #008000; fill-opacity: 0.5; stroke: #eeeeee; stroke-width: 0.5; stroke-linejoin: miter"/>
   </g>
   <g id="patch_34">
    <path d="M 532.373749 320.4 
L 542.402928 320.4 
L 542.402928 98.551261 
L 532.373749 98.551261 
z
" clip-path="url(#pa2674dbf77)" style="fill: #008000; fill-opacity: 0.5; stroke: #eeeeee; stroke-width: 0.5; stroke-linejoin: miter"/>
   </g>
   <g id="patch_35">
    <path d="M 542.402928 320.4 
L 552.432108 320.4 
L 552.432108 180.635294 
L 542.402928 180.635294 
z
" clip-path="url(#pa2674dbf77)" style="fill: #008000; fill-opacity: 0.5; stroke: #eeeeee; stroke-width: 0.5; stroke-linejoin: miter"/>
   </g>
   <g id="patch_36">
    <path d="M 552.432108 320.4 
L 562.461287 320.4 
L 562.461287 191.727731 
L 552.432108 191.727731 
z
" clip-path="url(#pa2674dbf77)" style="fill: #008000; fill-opacity: 0.5; stroke: #eeeeee; stroke-width: 0.5; stroke-linejoin: miter"/>
   </g>
   <g id="patch_37">
    <path d="M 562.461287 320.4 
L 572.490467 320.4 
L 572.490467 173.979832 
L 562.461287 173.979832 
z
" clip-path="url(#pa2674dbf77)" style="fill: #008000; fill-opacity: 0.5; stroke: #eeeeee; stroke-width: 0.5; stroke-linejoin: miter"/>
   </g>
   <g id="patch_38">
    <path d="M 572.490467 320.4 
L 582.519646 320.4 
L 582.519646 225.005042 
L 572.490467 225.005042 
z
" clip-path="url(#pa2674dbf77)" style="fill: #008000; fill-opacity: 0.5; stroke: #eeeeee; stroke-width: 0.5; stroke-linejoin: miter"/>
   </g>
   <g id="patch_39">
    <path d="M 582.519646 320.4 
L 592.548825 320.4 
L 592.548825 282.685714 
L 582.519646 282.685714 
z
" clip-path="url(#pa2674dbf77)" style="fill: #008000; fill-opacity: 0.5; stroke: #eeeeee; stroke-width: 0.5; stroke-linejoin: miter"/>
   </g>
   <g id="patch_40">
    <path d="M 592.548825 320.4 
L 602.578005 320.4 
L 602.578005 284.904202 
L 592.548825 284.904202 
z
" clip-path="url(#pa2674dbf77)" style="fill: #008000; fill-opacity: 0.5; stroke: #eeeeee; stroke-width: 0.5; stroke-linejoin: miter"/>
   </g>
   <g id="patch_41">
    <path d="M 602.578005 320.4 
L 612.607184 320.4 
L 612.607184 313.744538 
L 602.578005 313.744538 
z
" clip-path="url(#pa2674dbf77)" style="fill: #008000; fill-opacity: 0.5; stroke: #eeeeee; stroke-width: 0.5; stroke-linejoin: miter"/>
   </g>
   <g id="patch_42">
    <path d="M 612.607184 320.4 
L 622.636364 320.4 
L 622.636364 311.52605 
L 612.607184 311.52605 
z
" clip-path="url(#pa2674dbf77)" style="fill: #008000; fill-opacity: 0.5; stroke: #eeeeee; stroke-width: 0.5; stroke-linejoin: miter"/>
   </g>
   <g id="patch_43">
    <path d="M 383.435484 320.4 
L 395.183345 320.4 
L 395.183345 318.181513 
L 383.435484 318.181513 
z
" clip-path="url(#pa2674dbf77)" style="fill: #ffa500; fill-opacity: 0.5; stroke: #eeeeee; stroke-width: 0.5; stroke-linejoin: miter"/>
   </g>
   <g id="patch_44">
    <path d="M 395.183345 320.4 
L 406.931206 320.4 
L 406.931206 320.4 
L 395.183345 320.4 
z
" clip-path="url(#pa2674dbf77)" style="fill: #ffa500; fill-opacity: 0.5; stroke: #eeeeee; stroke-width: 0.5; stroke-linejoin: miter"/>
   </g>
   <g id="patch_45">
    <path d="M 406.931206 320.4 
L 418.679067 320.4 
L 418.679067 318.181513 
L 406.931206 318.181513 
z
" clip-path="url(#pa2674dbf77)" style="fill: #ffa500; fill-opacity: 0.5; stroke: #eeeeee; stroke-width: 0.5; stroke-linejoin: miter"/>
   </g>
   <g id="patch_46">
    <path d="M 418.679067 320.4 
L 430.426928 320.4 
L 430.426928 311.52605 
L 418.679067 311.52605 
z
" clip-path="url(#pa2674dbf77)" style="fill: #ffa500; fill-opacity: 0.5; stroke: #eeeeee; stroke-width: 0.5; stroke-linejoin: miter"/>
   </g>
   <g id="patch_47">
    <path d="M 430.426928 320.4 
L 442.174789 320.4 
L 442.174789 293.778151 
L 430.426928 293.778151 
z
" clip-path="url(#pa2674dbf77)" style="fill: #ffa500; fill-opacity: 0.5; stroke: #eeeeee; stroke-width: 0.5; stroke-linejoin: miter"/>
   </g>
   <g id="patch_48">
    <path d="M 442.174789 320.4 
L 453.92265 320.4 
L 453.92265 284.904202 
L 442.174789 284.904202 
z
" clip-path="url(#pa2674dbf77)" style="fill: #ffa500; fill-opacity: 0.5; stroke: #eeeeee; stroke-width: 0.5; stroke-linejoin: miter"/>
   </g>
   <g id="patch_49">
    <path d="M 453.92265 320.4 
L 465.670511 320.4 
L 465.670511 273.811765 
L 453.92265 273.811765 
z
" clip-path="url(#pa2674dbf77)" style="fill: #ffa500; fill-opacity: 0.5; stroke: #eeeeee; stroke-width: 0.5; stroke-linejoin: miter"/>
   </g>
   <g id="patch_50">
    <path d="M 465.670511 320.4 
L 477.418372 320.4 
L 477.418372 238.315966 
L 465.670511 238.315966 
z
" clip-path="url(#pa2674dbf77)" style="fill: #ffa500; fill-opacity: 0.5; stroke: #eeeeee; stroke-width: 0.5; stroke-linejoin: miter"/>
   </g>
   <g id="patch_51">
    <path d="M 477.418372 320.4 
L 489.166233 320.4 
L 489.166233 182.853782 
L 477.418372 182.853782 
z
" clip-path="url(#pa2674dbf77)" style="fill: #ffa500; fill-opacity: 0.5; stroke: #eeeeee; stroke-width: 0.5; stroke-linejoin: miter"/>
   </g>
   <g id="patch_52">
    <path d="M 489.166233 320.4 
L 500.914094 320.4 
L 500.914094 142.921008 
L 489.166233 142.921008 
z
" clip-path="url(#pa2674dbf77)" style="fill: #ffa500; fill-opacity: 0.5; stroke: #eeeeee; stroke-width: 0.5; stroke-linejoin: miter"/>
   </g>
   <g id="patch_53">
    <path d="M 500.914094 320.4 
L 512.661956 320.4 
L 512.661956 78.584874 
L 500.914094 78.584874 
z
" clip-path="url(#pa2674dbf77)" style="fill: #ffa500; fill-opacity: 0.5; stroke: #eeeeee; stroke-width: 0.5; stroke-linejoin: miter"/>
   </g>
   <g id="patch_54">
    <path d="M 512.661956 320.4 
L 524.409817 320.4 
L 524.409817 71.929412 
L 512.661956 71.929412 
z
" clip-path="url(#pa2674dbf77)" style="fill: #ffa500; fill-opacity: 0.5; stroke: #eeeeee; stroke-width: 0.5; stroke-linejoin: miter"/>
   </g>
   <g id="patch_55">
    <path d="M 524.409817 320.4 
L 536.157678 320.4 
L 536.157678 56.4 
L 524.409817 56.4 
z
" clip-path="url(#pa2674dbf77)" style="fill: #ffa500; fill-opacity: 0.5; stroke: #eeeeee; stroke-width: 0.5; stroke-linejoin: miter"/>
   </g>
   <g id="patch_56">
    <path d="M 536.157678 320.4 
L 547.905539 320.4 
L 547.905539 102.988235 
L 536.157678 102.988235 
z
" clip-path="url(#pa2674dbf77)" style="fill: #ffa500; fill-opacity: 0.5; stroke: #eeeeee; stroke-width: 0.5; stroke-linejoin: miter"/>
   </g>
   <g id="patch_57">
    <path d="M 547.905539 320.4 
L 559.6534 320.4 
L 559.6534 171.761345 
L 547.905539 171.761345 
z
" clip-path="url(#pa2674dbf77)" style="fill: #ffa500; fill-opacity: 0.5; stroke: #eeeeee; stroke-width: 0.5; stroke-linejoin: miter"/>
   </g>
   <g id="patch_58">
    <path d="M 559.6534 320.4 
L 571.401261 320.4 
L 571.401261 191.727731 
L 559.6534 191.727731 
z
" clip-path="url(#pa2674dbf77)" style="fill: #ffa500; fill-opacity: 0.5; stroke: #eeeeee; stroke-width: 0.5; stroke-linejoin: miter"/>
   </g>
   <g id="patch_59">
    <path d="M 571.401261 320.4 
L 583.149122 320.4 
L 583.149122 278.248739 
L 571.401261 278.248739 
z
" clip-path="url(#pa2674dbf77)" style="fill: #ffa500; fill-opacity: 0.5; stroke: #eeeeee; stroke-width: 0.5; stroke-linejoin: miter"/>
   </g>
   <g id="patch_60">
    <path d="M 583.149122 320.4 
L 594.896983 320.4 
L 594.896983 298.215126 
L 583.149122 298.215126 
z
" clip-path="url(#pa2674dbf77)" style="fill: #ffa500; fill-opacity: 0.5; stroke: #eeeeee; stroke-width: 0.5; stroke-linejoin: miter"/>
   </g>
   <g id="patch_61">
    <path d="M 594.896983 320.4 
L 606.644844 320.4 
L 606.644844 311.52605 
L 594.896983 311.52605 
z
" clip-path="url(#pa2674dbf77)" style="fill: #ffa500; fill-opacity: 0.5; stroke: #eeeeee; stroke-width: 0.5; stroke-linejoin: miter"/>
   </g>
   <g id="patch_62">
    <path d="M 606.644844 320.4 
L 618.392705 320.4 
L 618.392705 313.744538 
L 606.644844 313.744538 
z
" clip-path="url(#pa2674dbf77)" style="fill: #ffa500; fill-opacity: 0.5; stroke: #eeeeee; stroke-width: 0.5; stroke-linejoin: miter"/>
   </g>
   <g id="patch_63">
    <path d="M 115.363636 320.4 
L 121.909075 320.4 
L 121.909075 315.963025 
L 115.363636 315.963025 
z
" clip-path="url(#pa2674dbf77)" style="fill: #ff0000; fill-opacity: 0.5; stroke: #eeeeee; stroke-width: 0.5; stroke-linejoin: miter"/>
   </g>
   <g id="patch_64">
    <path d="M 121.909075 320.4 
L 128.454513 320.4 
L 128.454513 315.963025 
L 121.909075 315.963025 
z
" clip-path="url(#pa2674dbf77)" style="fill: #ff0000; fill-opacity: 0.5; stroke: #eeeeee; stroke-width: 0.5; stroke-linejoin: miter"/>
   </g>
   <g id="patch_65">
    <path d="M 128.454513 320.4 
L 134.999951 320.4 
L 134.999951 298.215126 
L 128.454513 298.215126 
z
" clip-path="url(#pa2674dbf77)" style="fill: #ff0000; fill-opacity: 0.5; stroke: #eeeeee; stroke-width: 0.5; stroke-linejoin: miter"/>
   </g>
   <g id="patch_66">
    <path d="M 134.999951 320.4 
L 141.545389 320.4 
L 141.545389 271.593277 
L 134.999951 271.593277 
z
" clip-path="url(#pa2674dbf77)" style="fill: #ff0000; fill-opacity: 0.5; stroke: #eeeeee; stroke-width: 0.5; stroke-linejoin: miter"/>
   </g>
   <g id="patch_67">
    <path d="M 141.545389 320.4 
L 148.090827 320.4 
L 148.090827 249.408403 
L 141.545389 249.408403 
z
" clip-path="url(#pa2674dbf77)" style="fill: #ff0000; fill-opacity: 0.5; stroke: #eeeeee; stroke-width: 0.5; stroke-linejoin: miter"/>
   </g>
   <g id="patch_68">
    <path d="M 148.090827 320.4 
L 154.636266 320.4 
L 154.636266 207.257143 
L 148.090827 207.257143 
z
" clip-path="url(#pa2674dbf77)" style="fill: #ff0000; fill-opacity: 0.5; stroke: #eeeeee; stroke-width: 0.5; stroke-linejoin: miter"/>
   </g>
   <g id="patch_69">
    <path d="M 154.636266 320.4 
L 161.181704 320.4 
L 161.181704 191.727731 
L 154.636266 191.727731 
z
" clip-path="url(#pa2674dbf77)" style="fill: #ff0000; fill-opacity: 0.5; stroke: #eeeeee; stroke-width: 0.5; stroke-linejoin: miter"/>
   </g>
   <g id="patch_70">
    <path d="M 161.181704 320.4 
L 167.727142 320.4 
L 167.727142 131.828571 
L 161.181704 131.828571 
z
" clip-path="url(#pa2674dbf77)" style="fill: #ff0000; fill-opacity: 0.5; stroke: #eeeeee; stroke-width: 0.5; stroke-linejoin: miter"/>
   </g>
   <g id="patch_71">
    <path d="M 167.727142 320.4 
L 174.27258 320.4 
L 174.27258 118.517647 
L 167.727142 118.517647 
z
" clip-path="url(#pa2674dbf77)" style="fill: #ff0000; fill-opacity: 0.5; stroke: #eeeeee; stroke-width: 0.5; stroke-linejoin: miter"/>
   </g>
   <g id="patch_72">
    <path d="M 174.27258 320.4 
L 180.818018 320.4 
L 180.818018 98.551261 
L 174.27258 98.551261 
z
" clip-path="url(#pa2674dbf77)" style="fill: #ff0000; fill-opacity: 0.5; stroke: #eeeeee; stroke-width: 0.5; stroke-linejoin: miter"/>
   </g>
   <g id="patch_73">
    <path d="M 180.818018 320.4 
L 187.363457 320.4 
L 187.363457 114.080672 
L 180.818018 114.080672 
z
" clip-path="url(#pa2674dbf77)" style="fill: #ff0000; fill-opacity: 0.5; stroke: #eeeeee; stroke-width: 0.5; stroke-linejoin: miter"/>
   </g>
   <g id="patch_74">
    <path d="M 187.363457 320.4 
L 193.908895 320.4 
L 193.908895 109.643697 
L 187.363457 109.643697 
z
" clip-path="url(#pa2674dbf77)" style="fill: #ff0000; fill-opacity: 0.5; stroke: #eeeeee; stroke-width: 0.5; stroke-linejoin: miter"/>
   </g>
   <g id="patch_75">
    <path d="M 193.908895 320.4 
L 200.454333 320.4 
L 200.454333 187.290756 
L 193.908895 187.290756 
z
" clip-path="url(#pa2674dbf77)" style="fill: #ff0000; fill-opacity: 0.5; stroke: #eeeeee; stroke-width: 0.5; stroke-linejoin: miter"/>
   </g>
   <g id="patch_76">
    <path d="M 200.454333 320.4 
L 206.999771 320.4 
L 206.999771 200.601681 
L 200.454333 200.601681 
z
" clip-path="url(#pa2674dbf77)" style="fill: #ff0000; fill-opacity: 0.5; stroke: #eeeeee; stroke-width: 0.5; stroke-linejoin: miter"/>
   </g>
   <g id="patch_77">
    <path d="M 206.999771 320.4 
L 213.545209 320.4 
L 213.545209 229.442017 
L 206.999771 229.442017 
z
" clip-path="url(#pa2674dbf77)" style="fill: #ff0000; fill-opacity: 0.5; stroke: #eeeeee; stroke-width: 0.5; stroke-linejoin: miter"/>
   </g>
   <g id="patch_78">
    <path d="M 213.545209 320.4 
L 220.090648 320.4 
L 220.090648 284.904202 
L 213.545209 284.904202 
z
" clip-path="url(#pa2674dbf77)" style="fill: #ff0000; fill-opacity: 0.5; stroke: #eeeeee; stroke-width: 0.5; stroke-linejoin: miter"/>
   </g>
   <g id="patch_79">
    <path d="M 220.090648 320.4 
L 226.636086 320.4 
L 226.636086 284.904202 
L 220.090648 284.904202 
z
" clip-path="url(#pa2674dbf77)" style="fill: #ff0000; fill-opacity: 0.5; stroke: #eeeeee; stroke-width: 0.5; stroke-linejoin: miter"/>
   </g>
   <g id="patch_80">
    <path d="M 226.636086 320.4 
L 233.181524 320.4 
L 233.181524 318.181513 
L 226.636086 318.181513 
z
" clip-path="url(#pa2674dbf77)" style="fill: #ff0000; fill-opacity: 0.5; stroke: #eeeeee; stroke-width: 0.5; stroke-linejoin: miter"/>
   </g>
   <g id="patch_81">
    <path d="M 233.181524 320.4 
L 239.726962 320.4 
L 239.726962 320.4 
L 233.181524 320.4 
z
" clip-path="url(#pa2674dbf77)" style="fill: #ff0000; fill-opacity: 0.5; stroke: #eeeeee; stroke-width: 0.5; stroke-linejoin: miter"/>
   </g>
   <g id="patch_82">
    <path d="M 239.726962 320.4 
L 246.2724 320.4 
L 246.2724 311.52605 
L 239.726962 311.52605 
z
" clip-path="url(#pa2674dbf77)" style="fill: #ff0000; fill-opacity: 0.5; stroke: #eeeeee; stroke-width: 0.5; stroke-linejoin: miter"/>
   </g>
   <g id="line2d_25">
    <path d="M 326.641189 318.144658 
L 332.187444 317.287578 
L 335.515197 316.97396 
L 338.84295 316.912725 
L 342.170704 317.122519 
L 347.716959 317.821259 
L 351.044712 318.152171 
L 353.263215 318.210831 
L 355.481717 318.082613 
L 357.700219 317.731492 
L 359.918721 317.131042 
L 362.137223 316.260567 
L 364.355725 315.102253 
L 366.574228 313.641662 
L 368.79273 311.872164 
L 371.011232 309.801653 
L 373.229734 307.458026 
L 376.557487 303.540272 
L 380.994492 297.887827 
L 386.540747 290.524464 
L 389.8685 285.792647 
L 392.087002 282.343799 
L 394.305505 278.544774 
L 396.524007 274.299223 
L 398.742509 269.517981 
L 400.961011 264.120354 
L 403.179513 258.036353 
L 405.398015 251.213622 
L 407.616518 243.629877 
L 409.83502 235.307944 
L 413.162773 221.634294 
L 418.709029 197.156111 
L 422.036782 182.805604 
L 424.255284 173.905707 
L 426.473786 165.760883 
L 428.692288 158.469009 
L 430.91079 152.031874 
L 433.129293 146.360894 
L 435.347795 141.29788 
L 438.675548 134.401719 
L 443.112552 125.410531 
L 446.440306 118.074602 
L 449.768059 110.007746 
L 454.205063 99.014795 
L 456.423565 94.21889 
L 457.532816 92.196978 
L 458.642068 90.500885 
L 459.751319 89.179302 
L 460.86057 88.271403 
L 461.969821 87.804655 
L 463.079072 87.793397 
L 464.188323 88.238302 
L 465.297574 89.12676 
L 466.406825 90.434128 
L 467.516076 92.12574 
L 468.625327 94.159492 
L 470.843829 99.065646 
L 473.062332 104.780627 
L 476.390085 114.230178 
L 479.717838 124.3409 
L 483.045591 135.253299 
L 485.264094 143.185385 
L 487.482596 151.748627 
L 490.810349 165.686892 
L 498.575107 199.292757 
L 500.793609 207.927365 
L 503.012111 215.852676 
L 505.230613 223.103988 
L 508.558366 232.980556 
L 511.88612 242.084369 
L 517.432375 256.463165 
L 522.97863 270.32365 
L 526.306384 278.239804 
L 529.634137 285.535078 
L 531.852639 289.905375 
L 534.071141 293.817422 
L 536.289643 297.271531 
L 538.508146 300.31762 
L 540.726648 303.038435 
L 544.054401 306.69961 
L 547.382154 310.022392 
L 547.382154 310.022392 
" clip-path="url(#pa2674dbf77)" style="fill: none; stroke: #0000ff; stroke-width: 1.5; stroke-linecap: square"/>
   </g>
   <g id="line2d_26">
    <path d="M 422.052775 316.477438 
L 425.076649 315.220086 
L 427.092564 314.184521 
L 429.10848 312.948131 
L 431.124395 311.483869 
L 433.14031 309.783015 
L 436.164184 306.826221 
L 439.188057 303.510775 
L 447.251719 294.133503 
L 452.291507 288.072752 
L 455.315381 284.094939 
L 458.339254 279.67782 
L 461.363127 274.732503 
L 464.387 269.257691 
L 467.410873 263.341838 
L 471.442704 254.996887 
L 475.474535 246.245119 
L 478.498408 239.209753 
L 480.514324 234.113148 
L 482.530239 228.564378 
L 484.546155 222.485708 
L 486.56207 215.856456 
L 489.585943 205.011905 
L 498.657563 171.05454 
L 501.681436 161.07767 
L 503.697352 155.033439 
L 505.713267 149.473964 
L 507.729182 144.386317 
L 509.745098 139.768743 
L 511.761013 135.64231 
L 513.776929 132.050765 
L 515.792844 129.048826 
L 517.80876 126.683485 
L 518.816717 125.74756 
L 519.824675 124.97615 
L 520.832633 124.366482 
L 521.840591 123.913859 
L 522.848548 123.61219 
L 523.856506 123.454704 
L 524.864464 123.434766 
L 525.872422 123.546735 
L 526.880379 123.786728 
L 527.888337 124.153236 
L 528.896295 124.64748 
L 529.904253 125.273469 
L 530.91221 126.03773 
L 531.920168 126.948709 
L 532.928126 128.0159 
L 534.944041 130.655517 
L 536.959957 134.010348 
L 538.975872 138.079188 
L 540.991788 142.782662 
L 544.015661 150.65832 
L 549.055449 164.001002 
L 551.071365 168.764056 
L 553.08728 173.004653 
L 555.103196 176.726185 
L 557.119111 180.034989 
L 562.1589 187.899249 
L 564.174815 191.554487 
L 566.190731 195.83537 
L 568.206646 200.863431 
L 570.222562 206.657701 
L 572.238477 213.135257 
L 575.26235 223.752023 
L 581.310097 245.430712 
L 584.33397 255.221521 
L 587.357843 263.962725 
L 590.381716 271.789879 
L 593.405589 278.990004 
L 597.43742 287.980407 
L 600.461294 294.245957 
L 602.477209 298.077786 
L 604.493125 301.537179 
L 606.50904 304.558935 
L 608.524955 307.112193 
L 610.540871 309.207168 
L 612.556786 310.891612 
L 614.572702 312.23945 
L 616.588617 313.335555 
L 619.61249 314.680589 
L 622.636364 315.838535 
L 622.636364 315.838535 
" clip-path="url(#pa2674dbf77)" style="fill: none; stroke: #008000; stroke-width: 1.5; stroke-linecap: square"/>
   </g>
   <g id="line2d_27">
    <path d="M 383.435484 319.214323 
L 388.158242 319.350678 
L 396.423069 319.758689 
L 399.965138 319.702854 
L 403.507206 319.417026 
L 407.049275 318.878051 
L 409.410654 318.35144 
L 411.772033 317.647463 
L 414.133412 316.707136 
L 416.494791 315.462071 
L 418.85617 313.853888 
L 421.21755 311.858122 
L 423.578929 309.503856 
L 427.120997 305.508191 
L 431.843756 300.064775 
L 434.205135 297.58655 
L 436.566514 295.350969 
L 440.108582 292.386726 
L 447.19272 286.777411 
L 449.554099 284.653908 
L 451.915478 282.249859 
L 454.276857 279.455106 
L 456.638236 276.135856 
L 458.999615 272.136981 
L 461.360994 267.294064 
L 463.722374 261.455843 
L 466.083753 254.516942 
L 468.445132 246.455886 
L 470.806511 237.36573 
L 474.34858 222.295812 
L 482.613406 185.816452 
L 487.336165 166.465062 
L 501.504439 110.48253 
L 505.046508 97.505553 
L 507.407887 89.71359 
L 509.769266 82.892175 
L 510.949956 79.914217 
L 512.130645 77.253895 
L 513.311335 74.925829 
L 514.492024 72.937416 
L 515.672714 71.288116 
L 516.853403 69.969387 
L 518.034093 68.965378 
L 519.214783 68.254423 
L 520.395472 67.811262 
L 521.576162 67.609803 
L 522.756851 67.626162 
L 523.937541 67.841621 
L 525.11823 68.245181 
L 526.29892 68.835366 
L 527.479609 69.621059 
L 528.660299 70.621228 
L 529.840989 71.863541 
L 531.021678 73.381992 
L 532.202368 75.213748 
L 533.383057 77.395523 
L 534.563747 79.959816 
L 535.744436 82.931338 
L 536.925126 86.323965 
L 538.105815 90.138475 
L 540.467195 98.964142 
L 542.828574 109.131303 
L 546.370642 125.874929 
L 551.093401 148.322869 
L 554.635469 163.876221 
L 565.261675 208.629554 
L 568.803744 225.388689 
L 573.526502 248.047777 
L 575.887881 258.586508 
L 578.24926 268.116378 
L 580.610639 276.438425 
L 582.972019 283.502716 
L 585.333398 289.378028 
L 587.694777 294.204187 
L 590.056156 298.147206 
L 592.417535 301.368861 
L 594.778914 304.012462 
L 597.140293 306.199893 
L 599.501672 308.033355 
L 601.863051 309.59728 
L 605.40512 311.581075 
L 608.947189 313.268348 
L 613.669947 315.215627 
L 618.392705 316.900291 
L 618.392705 316.900291 
" clip-path="url(#pa2674dbf77)" style="fill: none; stroke: #ffa500; stroke-width: 1.5; stroke-linecap: square"/>
   </g>
   <g id="line2d_28">
    <path d="M 115.363636 317.557444 
L 118.652801 316.403659 
L 120.6263 315.408374 
L 121.941966 314.487086 
L 123.257632 313.281897 
L 124.573298 311.736013 
L 125.888964 309.80736 
L 127.20463 307.47128 
L 128.520296 304.720848 
L 129.835962 301.565235 
L 131.809461 296.122747 
L 133.78296 289.925571 
L 136.414292 280.686531 
L 139.045624 270.544857 
L 142.334789 256.849456 
L 146.281787 239.221101 
L 152.202284 211.505955 
L 154.833615 198.283336 
L 157.464947 183.627331 
L 164.70111 141.205588 
L 166.674609 131.367153 
L 168.648108 122.688869 
L 169.963774 117.679203 
L 171.27944 113.465054 
L 172.595106 110.224747 
L 173.252939 109.015619 
L 173.910772 108.093286 
L 174.568605 107.4568 
L 175.226438 107.095543 
L 175.884271 106.989155 
L 176.542104 107.10838 
L 177.199937 107.416793 
L 178.515603 108.435039 
L 185.093933 114.833718 
L 185.751766 115.762771 
L 186.409599 116.891454 
L 187.067432 118.263987 
L 187.725265 119.918893 
L 189.040931 124.187209 
L 190.356597 129.810937 
L 191.672263 136.716177 
L 193.645762 148.883294 
L 197.592759 174.534076 
L 199.566258 185.528457 
L 201.539757 194.763529 
L 204.171089 205.479693 
L 206.144588 213.695008 
L 208.118087 222.98478 
L 210.091586 233.488456 
L 215.35425 262.463379 
L 217.327749 271.563414 
L 219.301248 279.356329 
L 221.274747 286.201372 
L 223.906079 294.558261 
L 226.537411 302.292672 
L 228.51091 307.379304 
L 229.826576 310.242493 
L 231.142242 312.595365 
L 232.457908 314.406917 
L 233.773574 315.688798 
L 235.08924 316.489867 
L 236.404906 316.887512 
L 237.720572 316.978511 
L 239.69407 316.775308 
L 242.325402 316.414328 
L 244.298901 316.418115 
L 245.614567 316.618284 
L 246.2724 316.775883 
L 246.2724 316.775883 
" clip-path="url(#pa2674dbf77)" style="fill: none; stroke: #ff0000; stroke-width: 1.5; stroke-linecap: square"/>
   </g>
   <g id="patch_83">
    <path d="M 90 320.4 
L 90 43.2 
" style="fill: none; stroke: #ffffff; stroke-linejoin: miter; stroke-linecap: square"/>
   </g>
   <g id="patch_84">
    <path d="M 648 320.4 
L 648 43.2 
" style="fill: none; stroke: #ffffff; stroke-linejoin: miter; stroke-linecap: square"/>
   </g>
   <g id="patch_85">
    <path d="M 90 320.4 
L 648 320.4 
" style="fill: none; stroke: #ffffff; stroke-linejoin: miter; stroke-linecap: square"/>
   </g>
   <g id="patch_86">
    <path d="M 90 43.2 
L 648 43.2 
" style="fill: none; stroke: #ffffff; stroke-linejoin: miter; stroke-linecap: square"/>
   </g>
   <g id="text_15">
    <!-- Similarity Distribution Comparison -->
    <g transform="translate(245.27025 37.2) scale(0.144 -0.144)">
     <defs>
      <path id="DejaVuSans-62" d="M 3116 1747 
Q 3116 2381 2855 2742 
Q 2594 3103 2138 3103 
Q 1681 3103 1420 2742 
Q 1159 2381 1159 1747 
Q 1159 1113 1420 752 
Q 1681 391 2138 391 
Q 2594 391 2855 752 
Q 3116 1113 3116 1747 
z
M 1159 2969 
Q 1341 3281 1617 3432 
Q 1894 3584 2278 3584 
Q 2916 3584 3314 3078 
Q 3713 2572 3713 1747 
Q 3713 922 3314 415 
Q 2916 -91 2278 -91 
Q 1894 -91 1617 61 
Q 1341 213 1159 525 
L 1159 0 
L 581 0 
L 581 4863 
L 1159 4863 
L 1159 2969 
z
" transform="scale(0.015625)"/>
      <path id="DejaVuSans-75" d="M 544 1381 
L 544 3500 
L 1119 3500 
L 1119 1403 
Q 1119 906 1312 657 
Q 1506 409 1894 409 
Q 2359 409 2629 706 
Q 2900 1003 2900 1516 
L 2900 3500 
L 3475 3500 
L 3475 0 
L 2900 0 
L 2900 538 
Q 2691 219 2414 64 
Q 2138 -91 1772 -91 
Q 1169 -91 856 284 
Q 544 659 544 1381 
z
M 1991 3584 
L 1991 3584 
z
" transform="scale(0.015625)"/>
      <path id="DejaVuSans-43" d="M 4122 4306 
L 4122 3641 
Q 3803 3938 3442 4084 
Q 3081 4231 2675 4231 
Q 1875 4231 1450 3742 
Q 1025 3253 1025 2328 
Q 1025 1406 1450 917 
Q 1875 428 2675 428 
Q 3081 428 3442 575 
Q 3803 722 4122 1019 
L 4122 359 
Q 3791 134 3420 21 
Q 3050 -91 2638 -91 
Q 1578 -91 968 557 
Q 359 1206 359 2328 
Q 359 3453 968 4101 
Q 1578 4750 2638 4750 
Q 3056 4750 3426 4639 
Q 3797 4528 4122 4306 
z
" transform="scale(0.015625)"/>
      <path id="DejaVuSans-70" d="M 1159 525 
L 1159 -1331 
L 581 -1331 
L 581 3500 
L 1159 3500 
L 1159 2969 
Q 1341 3281 1617 3432 
Q 1894 3584 2278 3584 
Q 2916 3584 3314 3078 
Q 3713 2572 3713 1747 
Q 3713 922 3314 415 
Q 2916 -91 2278 -91 
Q 1894 -91 1617 61 
Q 1341 213 1159 525 
z
M 3116 1747 
Q 3116 2381 2855 2742 
Q 2594 3103 2138 3103 
Q 1681 3103 1420 2742 
Q 1159 2381 1159 1747 
Q 1159 1113 1420 752 
Q 1681 391 2138 391 
Q 2594 391 2855 752 
Q 3116 1113 3116 1747 
z
" transform="scale(0.015625)"/>
     </defs>
     <use xlink:href="#DejaVuSans-53"/>
     <use xlink:href="#DejaVuSans-69" x="63.476562"/>
     <use xlink:href="#DejaVuSans-6d" x="91.259766"/>
     <use xlink:href="#DejaVuSans-69" x="188.671875"/>
     <use xlink:href="#DejaVuSans-6c" x="216.455078"/>
     <use xlink:href="#DejaVuSans-61" x="244.238281"/>
     <use xlink:href="#DejaVuSans-72" x="305.517578"/>
     <use xlink:href="#DejaVuSans-69" x="346.630859"/>
     <use xlink:href="#DejaVuSans-74" x="374.414062"/>
     <use xlink:href="#DejaVuSans-79" x="413.623047"/>
     <use xlink:href="#DejaVuSans-20" x="472.802734"/>
     <use xlink:href="#DejaVuSans-44" x="504.589844"/>
     <use xlink:href="#DejaVuSans-69" x="581.591797"/>
     <use xlink:href="#DejaVuSans-73" x="609.375"/>
     <use xlink:href="#DejaVuSans-74" x="661.474609"/>
     <use xlink:href="#DejaVuSans-72" x="700.683594"/>
     <use xlink:href="#DejaVuSans-69" x="741.796875"/>
     <use xlink:href="#DejaVuSans-62" x="769.580078"/>
     <use xlink:href="#DejaVuSans-75" x="833.056641"/>
     <use xlink:href="#DejaVuSans-74" x="896.435547"/>
     <use xlink:href="#DejaVuSans-69" x="935.644531"/>
     <use xlink:href="#DejaVuSans-6f" x="963.427734"/>
     <use xlink:href="#DejaVuSans-6e" x="1024.609375"/>
     <use xlink:href="#DejaVuSans-20" x="1087.988281"/>
     <use xlink:href="#DejaVuSans-43" x="1119.775391"/>
     <use xlink:href="#DejaVuSans-6f" x="1189.599609"/>
     <use xlink:href="#DejaVuSans-6d" x="1250.78125"/>
     <use xlink:href="#DejaVuSans-70" x="1348.193359"/>
     <use xlink:href="#DejaVuSans-61" x="1411.669922"/>
     <use xlink:href="#DejaVuSans-72" x="1472.949219"/>
     <use xlink:href="#DejaVuSans-69" x="1514.0625"/>
     <use xlink:href="#DejaVuSans-73" x="1541.845703"/>
     <use xlink:href="#DejaVuSans-6f" x="1593.945312"/>
     <use xlink:href="#DejaVuSans-6e" x="1655.126953"/>
    </g>
   </g>
   <g id="legend_1">
    <g id="patch_87">
     <path d="M 301.334375 109.9125 
L 436.665625 109.9125 
Q 438.665625 109.9125 438.665625 107.9125 
L 438.665625 50.2 
Q 438.665625 48.2 436.665625 48.2 
L 301.334375 48.2 
Q 299.334375 48.2 299.334375 50.2 
L 299.334375 107.9125 
Q 299.334375 109.9125 301.334375 109.9125 
z
" style="fill: #e5e5e5; opacity: 0.8; stroke: #cccccc; stroke-width: 0.5; stroke-linejoin: miter"/>
    </g>
    <g id="patch_88">
     <path d="M 303.334375 59.798437 
L 323.334375 59.798437 
L 323.334375 52.798437 
L 303.334375 52.798437 
z
" style="fill: #0000ff; fill-opacity: 0.5; stroke: #eeeeee; stroke-width: 0.5; stroke-linejoin: miter"/>
    </g>
    <g id="text_16">
     <!-- CLIP Model(RN50) -->
     <g transform="translate(331.334375 59.798437) scale(0.1 -0.1)">
      <defs>
       <path id="DejaVuSans-4c" d="M 628 4666 
L 1259 4666 
L 1259 531 
L 3531 531 
L 3531 0 
L 628 0 
L 628 4666 
z
" transform="scale(0.015625)"/>
       <path id="DejaVuSans-49" d="M 628 4666 
L 1259 4666 
L 1259 0 
L 628 0 
L 628 4666 
z
" transform="scale(0.015625)"/>
       <path id="DejaVuSans-50" d="M 1259 4147 
L 1259 2394 
L 2053 2394 
Q 2494 2394 2734 2622 
Q 2975 2850 2975 3272 
Q 2975 3691 2734 3919 
Q 2494 4147 2053 4147 
L 1259 4147 
z
M 628 4666 
L 2053 4666 
Q 2838 4666 3239 4311 
Q 3641 3956 3641 3272 
Q 3641 2581 3239 2228 
Q 2838 1875 2053 1875 
L 1259 1875 
L 1259 0 
L 628 0 
L 628 4666 
z
" transform="scale(0.015625)"/>
       <path id="DejaVuSans-4d" d="M 628 4666 
L 1569 4666 
L 2759 1491 
L 3956 4666 
L 4897 4666 
L 4897 0 
L 4281 0 
L 4281 4097 
L 3078 897 
L 2444 897 
L 1241 4097 
L 1241 0 
L 628 0 
L 628 4666 
z
" transform="scale(0.015625)"/>
       <path id="DejaVuSans-64" d="M 2906 2969 
L 2906 4863 
L 3481 4863 
L 3481 0 
L 2906 0 
L 2906 525 
Q 2725 213 2448 61 
Q 2172 -91 1784 -91 
Q 1150 -91 751 415 
Q 353 922 353 1747 
Q 353 2572 751 3078 
Q 1150 3584 1784 3584 
Q 2172 3584 2448 3432 
Q 2725 3281 2906 2969 
z
M 947 1747 
Q 947 1113 1208 752 
Q 1469 391 1925 391 
Q 2381 391 2643 752 
Q 2906 1113 2906 1747 
Q 2906 2381 2643 2742 
Q 2381 3103 1925 3103 
Q 1469 3103 1208 2742 
Q 947 2381 947 1747 
z
" transform="scale(0.015625)"/>
       <path id="DejaVuSans-28" d="M 1984 4856 
Q 1566 4138 1362 3434 
Q 1159 2731 1159 2009 
Q 1159 1288 1364 580 
Q 1569 -128 1984 -844 
L 1484 -844 
Q 1016 -109 783 600 
Q 550 1309 550 2009 
Q 550 2706 781 3412 
Q 1013 4119 1484 4856 
L 1984 4856 
z
" transform="scale(0.015625)"/>
       <path id="DejaVuSans-52" d="M 2841 2188 
Q 3044 2119 3236 1894 
Q 3428 1669 3622 1275 
L 4263 0 
L 3584 0 
L 2988 1197 
Q 2756 1666 2539 1819 
Q 2322 1972 1947 1972 
L 1259 1972 
L 1259 0 
L 628 0 
L 628 4666 
L 2053 4666 
Q 2853 4666 3247 4331 
Q 3641 3997 3641 3322 
Q 3641 2881 3436 2590 
Q 3231 2300 2841 2188 
z
M 1259 4147 
L 1259 2491 
L 2053 2491 
Q 2509 2491 2742 2702 
Q 2975 2913 2975 3322 
Q 2975 3731 2742 3939 
Q 2509 4147 2053 4147 
L 1259 4147 
z
" transform="scale(0.015625)"/>
       <path id="DejaVuSans-4e" d="M 628 4666 
L 1478 4666 
L 3547 763 
L 3547 4666 
L 4159 4666 
L 4159 0 
L 3309 0 
L 1241 3903 
L 1241 0 
L 628 0 
L 628 4666 
z
" transform="scale(0.015625)"/>
       <path id="DejaVuSans-35" d="M 691 4666 
L 3169 4666 
L 3169 4134 
L 1269 4134 
L 1269 2991 
Q 1406 3038 1543 3061 
Q 1681 3084 1819 3084 
Q 2600 3084 3056 2656 
Q 3513 2228 3513 1497 
Q 3513 744 3044 326 
Q 2575 -91 1722 -91 
Q 1428 -91 1123 -41 
Q 819 9 494 109 
L 494 744 
Q 775 591 1075 516 
Q 1375 441 1709 441 
Q 2250 441 2565 725 
Q 2881 1009 2881 1497 
Q 2881 1984 2565 2268 
Q 2250 2553 1709 2553 
Q 1456 2553 1204 2497 
Q 953 2441 691 2322 
L 691 4666 
z
" transform="scale(0.015625)"/>
       <path id="DejaVuSans-29" d="M 513 4856 
L 1013 4856 
Q 1481 4119 1714 3412 
Q 1947 2706 1947 2009 
Q 1947 1309 1714 600 
Q 1481 -109 1013 -844 
L 513 -844 
Q 928 -128 1133 580 
Q 1338 1288 1338 2009 
Q 1338 2731 1133 3434 
Q 928 4138 513 4856 
z
" transform="scale(0.015625)"/>
      </defs>
      <use xlink:href="#DejaVuSans-43"/>
      <use xlink:href="#DejaVuSans-4c" x="69.824219"/>
      <use xlink:href="#DejaVuSans-49" x="125.537109"/>
      <use xlink:href="#DejaVuSans-50" x="155.029297"/>
      <use xlink:href="#DejaVuSans-20" x="215.332031"/>
      <use xlink:href="#DejaVuSans-4d" x="247.119141"/>
      <use xlink:href="#DejaVuSans-6f" x="333.398438"/>
      <use xlink:href="#DejaVuSans-64" x="394.580078"/>
      <use xlink:href="#DejaVuSans-65" x="458.056641"/>
      <use xlink:href="#DejaVuSans-6c" x="519.580078"/>
      <use xlink:href="#DejaVuSans-28" x="547.363281"/>
      <use xlink:href="#DejaVuSans-52" x="586.376953"/>
      <use xlink:href="#DejaVuSans-4e" x="655.859375"/>
      <use xlink:href="#DejaVuSans-35" x="730.664062"/>
      <use xlink:href="#DejaVuSans-30" x="794.287109"/>
      <use xlink:href="#DejaVuSans-29" x="857.910156"/>
     </g>
    </g>
    <g id="patch_89">
     <path d="M 303.334375 74.476562 
L 323.334375 74.476562 
L 323.334375 67.476562 
L 303.334375 67.476562 
z
" style="fill: #008000; fill-opacity: 0.5; stroke: #eeeeee; stroke-width: 0.5; stroke-linejoin: miter"/>
    </g>
    <g id="text_17">
     <!-- CLIP Model(ViT-B/16) -->
     <g transform="translate(331.334375 74.476562) scale(0.1 -0.1)">
      <defs>
       <path id="DejaVuSans-56" d="M 1831 0 
L 50 4666 
L 709 4666 
L 2188 738 
L 3669 4666 
L 4325 4666 
L 2547 0 
L 1831 0 
z
" transform="scale(0.015625)"/>
       <path id="DejaVuSans-54" d="M -19 4666 
L 3928 4666 
L 3928 4134 
L 2272 4134 
L 2272 0 
L 1638 0 
L 1638 4134 
L -19 4134 
L -19 4666 
z
" transform="scale(0.015625)"/>
       <path id="DejaVuSans-2d" d="M 313 2009 
L 1997 2009 
L 1997 1497 
L 313 1497 
L 313 2009 
z
" transform="scale(0.015625)"/>
       <path id="DejaVuSans-42" d="M 1259 2228 
L 1259 519 
L 2272 519 
Q 2781 519 3026 730 
Q 3272 941 3272 1375 
Q 3272 1813 3026 2020 
Q 2781 2228 2272 2228 
L 1259 2228 
z
M 1259 4147 
L 1259 2741 
L 2194 2741 
Q 2656 2741 2882 2914 
Q 3109 3088 3109 3444 
Q 3109 3797 2882 3972 
Q 2656 4147 2194 4147 
L 1259 4147 
z
M 628 4666 
L 2241 4666 
Q 2963 4666 3353 4366 
Q 3744 4066 3744 3513 
Q 3744 3084 3544 2831 
Q 3344 2578 2956 2516 
Q 3422 2416 3680 2098 
Q 3938 1781 3938 1306 
Q 3938 681 3513 340 
Q 3088 0 2303 0 
L 628 0 
L 628 4666 
z
" transform="scale(0.015625)"/>
       <path id="DejaVuSans-2f" d="M 1625 4666 
L 2156 4666 
L 531 -594 
L 0 -594 
L 1625 4666 
z
" transform="scale(0.015625)"/>
      </defs>
      <use xlink:href="#DejaVuSans-43"/>
      <use xlink:href="#DejaVuSans-4c" x="69.824219"/>
      <use xlink:href="#DejaVuSans-49" x="125.537109"/>
      <use xlink:href="#DejaVuSans-50" x="155.029297"/>
      <use xlink:href="#DejaVuSans-20" x="215.332031"/>
      <use xlink:href="#DejaVuSans-4d" x="247.119141"/>
      <use xlink:href="#DejaVuSans-6f" x="333.398438"/>
      <use xlink:href="#DejaVuSans-64" x="394.580078"/>
      <use xlink:href="#DejaVuSans-65" x="458.056641"/>
      <use xlink:href="#DejaVuSans-6c" x="519.580078"/>
      <use xlink:href="#DejaVuSans-28" x="547.363281"/>
      <use xlink:href="#DejaVuSans-56" x="586.376953"/>
      <use xlink:href="#DejaVuSans-69" x="652.535156"/>
      <use xlink:href="#DejaVuSans-54" x="680.318359"/>
      <use xlink:href="#DejaVuSans-2d" x="732.277344"/>
      <use xlink:href="#DejaVuSans-42" x="764.736328"/>
      <use xlink:href="#DejaVuSans-2f" x="833.339844"/>
      <use xlink:href="#DejaVuSans-31" x="867.03125"/>
      <use xlink:href="#DejaVuSans-36" x="930.654297"/>
      <use xlink:href="#DejaVuSans-29" x="994.277344"/>
     </g>
    </g>
    <g id="patch_90">
     <path d="M 303.334375 89.154687 
L 323.334375 89.154687 
L 323.334375 82.154687 
L 303.334375 82.154687 
z
" style="fill: #ffa500; fill-opacity: 0.5; stroke: #eeeeee; stroke-width: 0.5; stroke-linejoin: miter"/>
    </g>
    <g id="text_18">
     <!-- CLIP Model(ViT-B/32) -->
     <g transform="translate(331.334375 89.154687) scale(0.1 -0.1)">
      <use xlink:href="#DejaVuSans-43"/>
      <use xlink:href="#DejaVuSans-4c" x="69.824219"/>
      <use xlink:href="#DejaVuSans-49" x="125.537109"/>
      <use xlink:href="#DejaVuSans-50" x="155.029297"/>
      <use xlink:href="#DejaVuSans-20" x="215.332031"/>
      <use xlink:href="#DejaVuSans-4d" x="247.119141"/>
      <use xlink:href="#DejaVuSans-6f" x="333.398438"/>
      <use xlink:href="#DejaVuSans-64" x="394.580078"/>
      <use xlink:href="#DejaVuSans-65" x="458.056641"/>
      <use xlink:href="#DejaVuSans-6c" x="519.580078"/>
      <use xlink:href="#DejaVuSans-28" x="547.363281"/>
      <use xlink:href="#DejaVuSans-56" x="586.376953"/>
      <use xlink:href="#DejaVuSans-69" x="652.535156"/>
      <use xlink:href="#DejaVuSans-54" x="680.318359"/>
      <use xlink:href="#DejaVuSans-2d" x="732.277344"/>
      <use xlink:href="#DejaVuSans-42" x="764.736328"/>
      <use xlink:href="#DejaVuSans-2f" x="833.339844"/>
      <use xlink:href="#DejaVuSans-33" x="867.03125"/>
      <use xlink:href="#DejaVuSans-32" x="930.654297"/>
      <use xlink:href="#DejaVuSans-29" x="994.277344"/>
     </g>
    </g>
    <g id="patch_91">
     <path d="M 303.334375 103.832812 
L 323.334375 103.832812 
L 323.334375 96.832812 
L 303.334375 96.832812 
z
" style="fill: #ff0000; fill-opacity: 0.5; stroke: #eeeeee; stroke-width: 0.5; stroke-linejoin: miter"/>
    </g>
    <g id="text_19">
     <!-- Baseline Model -->
     <g transform="translate(331.334375 103.832812) scale(0.1 -0.1)">
      <use xlink:href="#DejaVuSans-42"/>
      <use xlink:href="#DejaVuSans-61" x="68.603516"/>
      <use xlink:href="#DejaVuSans-73" x="129.882812"/>
      <use xlink:href="#DejaVuSans-65" x="181.982422"/>
      <use xlink:href="#DejaVuSans-6c" x="243.505859"/>
      <use xlink:href="#DejaVuSans-69" x="271.289062"/>
      <use xlink:href="#DejaVuSans-6e" x="299.072266"/>
      <use xlink:href="#DejaVuSans-65" x="362.451172"/>
      <use xlink:href="#DejaVuSans-20" x="423.974609"/>
      <use xlink:href="#DejaVuSans-4d" x="455.761719"/>
      <use xlink:href="#DejaVuSans-6f" x="542.041016"/>
      <use xlink:href="#DejaVuSans-64" x="603.222656"/>
      <use xlink:href="#DejaVuSans-65" x="666.699219"/>
      <use xlink:href="#DejaVuSans-6c" x="728.222656"/>
     </g>
    </g>
   </g>
  </g>
 </g>
 <defs>
  <clipPath id="pa2674dbf77">
   <rect x="90" y="43.2" width="558" height="277.2"/>
  </clipPath>
 </defs>
</svg>
